<mxfile host="app.diagrams.net" modified="2022-04-19T13:40:30.275Z" agent="5.0 (Windows NT 10.0; Win64; x64) AppleWebKit/537.36 (KHTML, like Gecko) Chrome/100.0.4896.88 Safari/537.36" etag="5IOvDshL7yZewO2PpDmW" version="17.4.5" type="github">
  <diagram id="qH0VUbQ5ooWyFrgkbezR" name="Page-1">
    <mxGraphModel dx="868" dy="460" grid="1" gridSize="10" guides="1" tooltips="1" connect="1" arrows="1" fold="1" page="1" pageScale="1" pageWidth="827" pageHeight="1169" math="0" shadow="0">
      <root>
        <mxCell id="0" />
        <mxCell id="1" parent="0" />
        <mxCell id="AQTlXHXqa8V5C9vSKk-m-3" value="" style="edgeStyle=orthogonalEdgeStyle;rounded=0;orthogonalLoop=1;jettySize=auto;html=1;" edge="1" parent="1" source="AQTlXHXqa8V5C9vSKk-m-1">
          <mxGeometry relative="1" as="geometry">
            <mxPoint x="380" y="110" as="targetPoint" />
          </mxGeometry>
        </mxCell>
        <mxCell id="AQTlXHXqa8V5C9vSKk-m-1" value="Mulai" style="ellipse;whiteSpace=wrap;html=1;" vertex="1" parent="1">
          <mxGeometry x="320" y="30" width="120" height="50" as="geometry" />
        </mxCell>
        <mxCell id="AQTlXHXqa8V5C9vSKk-m-6" value="" style="edgeStyle=orthogonalEdgeStyle;rounded=0;orthogonalLoop=1;jettySize=auto;html=1;" edge="1" parent="1" source="AQTlXHXqa8V5C9vSKk-m-4" target="AQTlXHXqa8V5C9vSKk-m-5">
          <mxGeometry relative="1" as="geometry" />
        </mxCell>
        <mxCell id="AQTlXHXqa8V5C9vSKk-m-4" value="Dashboard" style="shape=parallelogram;perimeter=parallelogramPerimeter;whiteSpace=wrap;html=1;fixedSize=1;" vertex="1" parent="1">
          <mxGeometry x="305" y="110" width="150" height="60" as="geometry" />
        </mxCell>
        <mxCell id="AQTlXHXqa8V5C9vSKk-m-8" value="" style="edgeStyle=orthogonalEdgeStyle;rounded=0;orthogonalLoop=1;jettySize=auto;html=1;" edge="1" parent="1" source="AQTlXHXqa8V5C9vSKk-m-5" target="AQTlXHXqa8V5C9vSKk-m-7">
          <mxGeometry relative="1" as="geometry" />
        </mxCell>
        <mxCell id="AQTlXHXqa8V5C9vSKk-m-5" value="Menu Monitoring" style="whiteSpace=wrap;html=1;" vertex="1" parent="1">
          <mxGeometry x="320" y="200" width="120" height="60" as="geometry" />
        </mxCell>
        <mxCell id="AQTlXHXqa8V5C9vSKk-m-10" value="" style="edgeStyle=orthogonalEdgeStyle;rounded=0;orthogonalLoop=1;jettySize=auto;html=1;" edge="1" parent="1" source="AQTlXHXqa8V5C9vSKk-m-7" target="AQTlXHXqa8V5C9vSKk-m-9">
          <mxGeometry relative="1" as="geometry" />
        </mxCell>
        <mxCell id="AQTlXHXqa8V5C9vSKk-m-7" value="Output hasil" style="shape=parallelogram;perimeter=parallelogramPerimeter;whiteSpace=wrap;html=1;fixedSize=1;" vertex="1" parent="1">
          <mxGeometry x="300" y="290" width="160" height="60" as="geometry" />
        </mxCell>
        <mxCell id="AQTlXHXqa8V5C9vSKk-m-12" value="" style="edgeStyle=orthogonalEdgeStyle;rounded=0;orthogonalLoop=1;jettySize=auto;html=1;" edge="1" parent="1" source="AQTlXHXqa8V5C9vSKk-m-9" target="AQTlXHXqa8V5C9vSKk-m-11">
          <mxGeometry relative="1" as="geometry" />
        </mxCell>
        <mxCell id="AQTlXHXqa8V5C9vSKk-m-9" value="Riwayat data hasil &lt;br&gt;monitoring" style="shape=parallelogram;perimeter=parallelogramPerimeter;whiteSpace=wrap;html=1;fixedSize=1;" vertex="1" parent="1">
          <mxGeometry x="300" y="380" width="160" height="60" as="geometry" />
        </mxCell>
        <mxCell id="AQTlXHXqa8V5C9vSKk-m-11" value="Selesai" style="ellipse;whiteSpace=wrap;html=1;" vertex="1" parent="1">
          <mxGeometry x="320" y="470" width="120" height="50" as="geometry" />
        </mxCell>
      </root>
    </mxGraphModel>
  </diagram>
</mxfile>
